# xmcd
#
# Track frame offsets: 
#        150
#        20747
#        45870
#        66995
#        91747
#        111762
#        138600
#        164212
#        189932
#        211287
#        233167
#
# Disc length: 3436 seconds
#
# Revision: 3
# Processed by: cddbd v1.5.2PL0 Copyright (c) Steve Scherf et al.
# Submitted via: ExactAudioCopy v0.95a5
#
DISCID=960d6a0b
DTITLE=Peabo Bryson - Can You Stop The Rain
DYEAR=1991
DGENRE=R&B
TTITLE0=Lost In The Night
TTITLE1=Can You Stop The Rain
TTITLE2=Closer Than Close
TTITLE3=Shower You With Love
TTITLE4=I Can't Imagine (with Regina Belle)
TTITLE5=I Wish You Love
TTITLE6=You Don't Have To Beg
TTITLE7=I Wanna Be With You
TTITLE8=I Just Had To Fall
TTITLE9=Soul Provider
TTITLE10=If It's Really Love
EXTD=
EXTT0=
EXTT1=
EXTT2=
EXTT3=
EXTT4=
EXTT5=
EXTT6=
EXTT7=
EXTT8=
EXTT9=
EXTT10=
PLAYORDER=
